<svg xmlns="http://www.w3.org/2000/svg" width="19.268" height="18.601" viewBox="0 0 19.268 18.601">
  <g id="pointing" transform="translate(19.254 3.9) rotate(104)">
    <path id="Shape" d="M2.9,11.893c-.28-.36-.63-1.09-1.24-2-.35-.5-1.21-1.45-1.47-1.94a1.26,1.26,0,0,1-.15-1,1.32,1.32,0,0,1,1.43-1,2.66,2.66,0,0,1,1.35.72,6.39,6.39,0,0,1,.71.79c.16.2.2.28.38.51s.3.46.21.12c-.07-.5-.19-1.34-.36-2.09-.13-.57-.16-.66-.28-1.09s-.19-.79-.32-1.28a14.16,14.16,0,0,1-.28-1.46,2.82,2.82,0,0,1,.26-1.85A1.19,1.19,0,0,1,4.444.1a2.64,2.64,0,0,1,.94,1.3,7.73,7.73,0,0,1,.52,2c.16,1,.47,2.46.48,2.76a10.726,10.726,0,0,1,0-1.5,1.07,1.07,0,0,1,.67-.8,2,2,0,0,1,.92-.06,1.27,1.27,0,0,1,.77.5,5.42,5.42,0,0,1,.38,1.83,6.73,6.73,0,0,1,.28-1.62,1.24,1.24,0,0,1,.69-.48,2.78,2.78,0,0,1,1,0,1.41,1.41,0,0,1,.68.49,5.52,5.52,0,0,1,.38,1.66,6.021,6.021,0,0,1,.29-.74,1,1,0,0,1,1.9.64v2.26a11.74,11.74,0,0,1-.24,1.74,5.91,5.91,0,0,1-.72,1.43,7.21,7.21,0,0,0-1.19,1.81,4,4,0,0,0-.1,1,3.5,3.5,0,0,0,.12.92,5.85,5.85,0,0,1-1.23,0c-.39-.06-.87-.84-1-1.08a.38.38,0,0,0-.68,0c-.22.38-.71,1.07-1.05,1.11-.67.08-2.05,0-3.14,0,0,0,.18-1-.23-1.36s-.83-.78-1.14-1.06Z" transform="translate(0.366 0.387)" fill="#fff"/>
    <path id="Shape-2" data-name="Shape" d="M2.9,11.893c-.28-.36-.63-1.09-1.24-2-.35-.5-1.21-1.45-1.47-1.94a1.26,1.26,0,0,1-.15-1,1.32,1.32,0,0,1,1.43-1,2.66,2.66,0,0,1,1.35.72,6.39,6.39,0,0,1,.71.79c.16.2.2.28.38.51s.3.46.21.12c-.07-.5-.19-1.34-.36-2.09-.13-.57-.16-.66-.28-1.09s-.19-.79-.32-1.28a14.16,14.16,0,0,1-.28-1.46,2.82,2.82,0,0,1,.26-1.85A1.19,1.19,0,0,1,4.444.1a2.64,2.64,0,0,1,.94,1.3,7.73,7.73,0,0,1,.52,2c.16,1,.47,2.46.48,2.76a10.726,10.726,0,0,1,0-1.5,1.07,1.07,0,0,1,.67-.8,2,2,0,0,1,.92-.06,1.27,1.27,0,0,1,.77.5,5.42,5.42,0,0,1,.38,1.83,6.73,6.73,0,0,1,.28-1.62,1.24,1.24,0,0,1,.69-.48,2.78,2.78,0,0,1,1,0,1.41,1.41,0,0,1,.68.49,5.52,5.52,0,0,1,.38,1.66,6.021,6.021,0,0,1,.29-.74,1,1,0,0,1,1.9.64v2.26a11.74,11.74,0,0,1-.24,1.74,5.91,5.91,0,0,1-.72,1.43,7.21,7.21,0,0,0-1.19,1.81,4,4,0,0,0-.1,1,3.5,3.5,0,0,0,.12.92,5.85,5.85,0,0,1-1.23,0c-.39-.06-.87-.84-1-1.08a.38.38,0,0,0-.68,0c-.22.38-.71,1.07-1.05,1.11-.67.08-2.05,0-3.14,0,0,0,.18-1-.23-1.36s-.83-.78-1.14-1.06Z" transform="translate(0.366 0.387)" fill="none" stroke="#000" stroke-linecap="round" stroke-linejoin="round" stroke-miterlimit="10" stroke-width="0.75"/>
    <path id="Shape-3" data-name="Shape" d="M.75,3.826V.374a.375.375,0,0,0-.75,0V3.826a.375.375,0,0,0,.75,0Z" transform="translate(11 9)"/>
    <path id="Shape-4" data-name="Shape" d="M.77,3.825.75.371a.375.375,0,0,0-.75,0L.02,3.829a.375.375,0,0,0,.75,0Z" transform="translate(9 9)"/>
    <path id="Shape-5" data-name="Shape" d="M0,.379.02,3.825a.375.375,0,1,0,.75,0L.75.375a.375.375,0,1,0-.75,0Z" transform="translate(7 9)"/>
  </g>
</svg>
